<svg id="Layer_1" data-name="Layer 1" xmlns="http://www.w3.org/2000/svg" viewBox="0 0 246 112.02"><defs><style>.cls-1{fill:#00fb7d;}</style></defs><g id="logo_" data-name="logo "><path id="Path_1881" data-name="Path 1881" d="M5.19,102.69H66.51V84.63H32.28L65,44.1V29.19h-60V47.25H38.26L5.19,88ZM80.47,74.24c0,20.26,12.92,29.82,32.24,29.82s32.34-9.56,32.34-29.82v-45H124.68V74.34c0,7.67-4.52,12.6-12,12.6S100.84,82,100.84,74.34V29.19H80.47Zm81.27,28.45H181V57.12l20.47,27.93,20.48-27.93v45.57h19V29.19H221l-19.53,27.3L182,29.19H161.74Z"/><rect id="Rectangle_1025" data-name="Rectangle 1025" class="cls-1" x="80.2" y="6.69" width="65" height="9"/></g></svg>